# xmcd
#
# Track frame offsets:
# 150
# 15550
# 31233
# 49830
# 68070
# 79985
# 98113
# 112868
# 132170
# 145348
# 158240
#
# Disc length: 2356 seconds
#
#
# Revision: 0
# Processed by: cddbd v1.5.2PL0 Copyright (c) Steve Scherf et al.
# Submitted via: Nero 7, 11, 10, 0 
#
DISCID=8909320b
DTITLE=Tom Larsen - Dangerous Love
DYEAR=1994
DGENRE=Blues
TTITLE0=Now I Know
TTITLE1=Dangerous Love
TTITLE2=Catman
TTITLE3=When?
TTITLE4=Next Door Neighbor
TTITLE5=Straight Edge
TTITLE6=This Town's Too Small
TTITLE7=Sweet On You
TTITLE8=Mr. Pump
TTITLE9=I'm The Man
TTITLE10=Off The Wagon
EXTD=
EXTT0=Now I Know
EXTT1=Dangerous Love
EXTT2=Catman
EXTT3=When?
EXTT4=Next Door Neighbor
EXTT5=Straight Edge
EXTT6=This Town's Too Small
EXTT7=Sweet On You
EXTT8=Mr. Pump
EXTT9=I'm The Man
EXTT10=Off The Wagon
PLAYORDER=
